<svg xmlns="http://www.w3.org/2000/svg" xmlns:xlink="http://www.w3.org/1999/xlink" width="500" zoomAndPan="magnify" viewBox="0 0 375 374.999991" height="500" preserveAspectRatio="xMidYMid meet" version="1.0"><defs><clipPath id="0c632c0f6b"><path d="M 102 114 L 212.40625 114 L 212.40625 261.75 L 102 261.75 Z M 102 114 " clip-rule="nonzero"/></clipPath><clipPath id="82cdc32333"><path d="M 96 112 L 206 112 L 206 261.75 L 96 261.75 Z M 96 112 " clip-rule="nonzero"/></clipPath><clipPath id="46673e5c6a"><path d="M 96 111.75 L 207 111.75 L 207 261.75 L 96 261.75 Z M 96 111.75 " clip-rule="nonzero"/></clipPath><clipPath id="1b36d5d385"><path d="M 93.15625 112 L 204 112 L 204 258 L 93.15625 258 Z M 93.15625 112 " clip-rule="nonzero"/></clipPath><clipPath id="9503f75a36"><path d="M 93.15625 111.75 L 204 111.75 L 204 258 L 93.15625 258 Z M 93.15625 111.75 " clip-rule="nonzero"/></clipPath><clipPath id="726ce62f45"><path d="M 207 101.132812 L 275 101.132812 L 275 273.632812 L 207 273.632812 Z M 207 101.132812 " clip-rule="nonzero"/></clipPath><clipPath id="2c7c1027a5"><path d="M 206 101.132812 L 275 101.132812 L 275 273.632812 L 206 273.632812 Z M 206 101.132812 " clip-rule="nonzero"/></clipPath><clipPath id="0818703c87"><path d="M 203.464844 101.132812 L 272 101.132812 L 272 269 L 203.464844 269 Z M 203.464844 101.132812 " clip-rule="nonzero"/></clipPath><clipPath id="c7e881bb4c"><path d="M 203.464844 101.132812 L 272 101.132812 L 272 270 L 203.464844 270 Z M 203.464844 101.132812 " clip-rule="nonzero"/></clipPath><clipPath id="f669e505ea"><path d="M 83 50 L 182 50 L 182 113 L 83 113 Z M 83 50 " clip-rule="nonzero"/></clipPath><clipPath id="1fe95e336a"><path d="M 75.074219 76.535156 L 173.378906 37.550781 L 202.40625 110.757812 L 104.105469 149.738281 Z M 75.074219 76.535156 " clip-rule="nonzero"/></clipPath><clipPath id="9f1df85d80"><path d="M 75.074219 76.535156 L 173.378906 37.550781 L 202.40625 110.757812 L 104.105469 149.738281 Z M 75.074219 76.535156 " clip-rule="nonzero"/></clipPath><clipPath id="99d078b499"><path d="M 98 79 L 180 79 L 180 146 L 98 146 Z M 98 79 " clip-rule="nonzero"/></clipPath><clipPath id="877d3d13f3"><path d="M 75.074219 76.535156 L 173.378906 37.550781 L 202.40625 110.757812 L 104.105469 149.738281 Z M 75.074219 76.535156 " clip-rule="nonzero"/></clipPath><clipPath id="b39602529c"><path d="M 75.074219 76.535156 L 173.378906 37.550781 L 202.40625 110.757812 L 104.105469 149.738281 Z M 75.074219 76.535156 " clip-rule="nonzero"/></clipPath><clipPath id="6e72767da6"><path d="M 100 80 L 183 80 L 183 146 L 100 146 Z M 100 80 " clip-rule="nonzero"/></clipPath><clipPath id="5e97f37ec6"><path d="M 75.074219 76.535156 L 173.378906 37.550781 L 202.40625 110.757812 L 104.105469 149.738281 Z M 75.074219 76.535156 " clip-rule="nonzero"/></clipPath><clipPath id="50758db792"><path d="M 75.074219 76.535156 L 173.378906 37.550781 L 202.40625 110.757812 L 104.105469 149.738281 Z M 75.074219 76.535156 " clip-rule="nonzero"/></clipPath><clipPath id="26c5e6094b"><path d="M 100 81 L 178 81 L 178 143 L 100 143 Z M 100 81 " clip-rule="nonzero"/></clipPath><clipPath id="1793f70b9d"><path d="M 75.074219 76.535156 L 173.378906 37.550781 L 202.40625 110.757812 L 104.105469 149.738281 Z M 75.074219 76.535156 " clip-rule="nonzero"/></clipPath><clipPath id="29779a4d93"><path d="M 75.074219 76.535156 L 173.378906 37.550781 L 202.40625 110.757812 L 104.105469 149.738281 Z M 75.074219 76.535156 " clip-rule="nonzero"/></clipPath><clipPath id="84616bcaa7"><path d="M 81 71 L 120 71 L 120 108 L 81 108 Z M 81 71 " clip-rule="nonzero"/></clipPath><clipPath id="c634dea9a5"><path d="M 75.074219 76.535156 L 173.378906 37.550781 L 202.40625 110.757812 L 104.105469 149.738281 Z M 75.074219 76.535156 " clip-rule="nonzero"/></clipPath><clipPath id="3d657844b3"><path d="M 75.074219 76.535156 L 173.378906 37.550781 L 202.40625 110.757812 L 104.105469 149.738281 Z M 75.074219 76.535156 " clip-rule="nonzero"/></clipPath><clipPath id="dc3af8b4b2"><path d="M 80 70 L 121 70 L 121 110 L 80 110 Z M 80 70 " clip-rule="nonzero"/></clipPath><clipPath id="1d07208b73"><path d="M 75.074219 76.535156 L 173.378906 37.550781 L 202.40625 110.757812 L 104.105469 149.738281 Z M 75.074219 76.535156 " clip-rule="nonzero"/></clipPath><clipPath id="8a0c05b1fa"><path d="M 75.074219 76.535156 L 173.378906 37.550781 L 202.40625 110.757812 L 104.105469 149.738281 Z M 75.074219 76.535156 " clip-rule="nonzero"/></clipPath><clipPath id="271f8a6c8c"><path d="M 95 82 L 108 82 L 108 99 L 95 99 Z M 95 82 " clip-rule="nonzero"/></clipPath><clipPath id="18172a502b"><path d="M 75.074219 76.535156 L 173.378906 37.550781 L 202.40625 110.757812 L 104.105469 149.738281 Z M 75.074219 76.535156 " clip-rule="nonzero"/></clipPath><clipPath id="8a6b195cb1"><path d="M 75.074219 76.535156 L 173.378906 37.550781 L 202.40625 110.757812 L 104.105469 149.738281 Z M 75.074219 76.535156 " clip-rule="nonzero"/></clipPath><clipPath id="07f5ebc9f6"><path d="M 143 49 L 177 49 L 177 89 L 143 89 Z M 143 49 " clip-rule="nonzero"/></clipPath><clipPath id="b3c910575d"><path d="M 75.074219 76.535156 L 173.378906 37.550781 L 202.40625 110.757812 L 104.105469 149.738281 Z M 75.074219 76.535156 " clip-rule="nonzero"/></clipPath><clipPath id="33c6d0030d"><path d="M 75.074219 76.535156 L 173.378906 37.550781 L 202.40625 110.757812 L 104.105469 149.738281 Z M 75.074219 76.535156 " clip-rule="nonzero"/></clipPath><clipPath id="ec68134a56"><path d="M 142 48 L 179 48 L 179 89 L 142 89 Z M 142 48 " clip-rule="nonzero"/></clipPath><clipPath id="edccff4200"><path d="M 75.074219 76.535156 L 173.378906 37.550781 L 202.40625 110.757812 L 104.105469 149.738281 Z M 75.074219 76.535156 " clip-rule="nonzero"/></clipPath><clipPath id="08d93e9678"><path d="M 75.074219 76.535156 L 173.378906 37.550781 L 202.40625 110.757812 L 104.105469 149.738281 Z M 75.074219 76.535156 " clip-rule="nonzero"/></clipPath><clipPath id="764d67fba8"><path d="M 157 56 L 166 56 L 166 75 L 157 75 Z M 157 56 " clip-rule="nonzero"/></clipPath><clipPath id="46bc322630"><path d="M 75.074219 76.535156 L 173.378906 37.550781 L 202.40625 110.757812 L 104.105469 149.738281 Z M 75.074219 76.535156 " clip-rule="nonzero"/></clipPath><clipPath id="180d1ed4d8"><path d="M 75.074219 76.535156 L 173.378906 37.550781 L 202.40625 110.757812 L 104.105469 149.738281 Z M 75.074219 76.535156 " clip-rule="nonzero"/></clipPath><clipPath id="9b520dcea8"><path d="M 112 56 L 152 56 L 152 109 L 112 109 Z M 112 56 " clip-rule="nonzero"/></clipPath><clipPath id="8871789675"><path d="M 75.074219 76.535156 L 173.378906 37.550781 L 202.40625 110.757812 L 104.105469 149.738281 Z M 75.074219 76.535156 " clip-rule="nonzero"/></clipPath><clipPath id="8ad77eb520"><path d="M 75.074219 76.535156 L 173.378906 37.550781 L 202.40625 110.757812 L 104.105469 149.738281 Z M 75.074219 76.535156 " clip-rule="nonzero"/></clipPath><clipPath id="5736207791"><path d="M 110 55 L 154 55 L 154 113 L 110 113 Z M 110 55 " clip-rule="nonzero"/></clipPath><clipPath id="16cbd5d963"><path d="M 75.074219 76.535156 L 173.378906 37.550781 L 202.40625 110.757812 L 104.105469 149.738281 Z M 75.074219 76.535156 " clip-rule="nonzero"/></clipPath><clipPath id="bfd564cc15"><path d="M 75.074219 76.535156 L 173.378906 37.550781 L 202.40625 110.757812 L 104.105469 149.738281 Z M 75.074219 76.535156 " clip-rule="nonzero"/></clipPath><clipPath id="efda779203"><path d="M 121 65 L 143 65 L 143 88 L 121 88 Z M 121 65 " clip-rule="nonzero"/></clipPath><clipPath id="56a11e245d"><path d="M 75.074219 76.535156 L 173.378906 37.550781 L 202.40625 110.757812 L 104.105469 149.738281 Z M 75.074219 76.535156 " clip-rule="nonzero"/></clipPath><clipPath id="f50ef72fd8"><path d="M 75.074219 76.535156 L 173.378906 37.550781 L 202.40625 110.757812 L 104.105469 149.738281 Z M 75.074219 76.535156 " clip-rule="nonzero"/></clipPath></defs><path fill="#2b2b2b" d="M 211.882812 169.519531 L 207.085938 173.15625 C 206.691406 172.867188 206.164062 172.71875 205.480469 172.71875 C 204.515625 172.71875 203.492188 173.035156 202.425781 173.664062 C 201.359375 174.296875 199.324219 176.113281 196.3125 179.121094 L 196.3125 254.191406 L 202.859375 260.738281 L 166.492188 260.738281 L 171.871094 255.355469 L 173.039062 190.324219 C 171.972656 190.710938 169.789062 192.117188 166.492188 194.542969 C 162.128906 197.355469 157.761719 198.761719 153.398438 198.761719 L 150.921875 198.761719 L 150.921875 243.425781 L 158.203125 250.554688 L 119.351562 250.554688 L 126.480469 243.425781 L 126.480469 201.089844 C 125.417969 200.410156 123.621094 199.441406 121.101562 198.179688 C 118.582031 196.917969 116.007812 195.660156 113.390625 194.398438 C 109.703125 192.554688 107.519531 191.195312 106.84375 190.324219 C 103.839844 186.347656 102.335938 183.050781 102.335938 180.429688 C 102.335938 179.753906 102.480469 179.074219 102.773438 178.394531 C 103.257812 177.035156 104.566406 175.773438 106.699219 174.613281 C 108.832031 173.449219 110.675781 172.960938 112.222656 173.15625 C 113.195312 173.15625 115.570312 173.351562 119.351562 173.738281 C 117.898438 174.417969 115.910156 175.582031 113.390625 177.230469 C 112.222656 178.007812 111.644531 179.171875 111.644531 180.722656 C 111.644531 183.921875 113.050781 185.960938 115.859375 186.832031 C 117.027344 187.21875 120.8125 188.382812 127.214844 190.324219 L 127.214844 126.601562 L 120.519531 119.472656 L 156.308594 119.472656 L 152.527344 123.253906 L 152.527344 187.414062 C 152.816406 187.609375 153.15625 187.707031 153.542969 187.707031 C 155.191406 187.707031 157.519531 186.832031 160.527344 185.085938 C 162.566406 183.824219 166.730469 181.835938 173.039062 179.121094 L 173.039062 120.054688 L 168.234375 115.253906 L 202.28125 115.253906 L 197.480469 120.054688 L 197.480469 170.683594 C 198.644531 170.683594 200.246094 170.296875 202.28125 169.519531 C 204.609375 168.742188 207.8125 168.742188 211.882812 169.519531 Z M 211.882812 169.519531 " fill-opacity="1" fill-rule="nonzero"/><g clip-path="url(#0c632c0f6b)"><path stroke-linecap="butt" transform="matrix(0.558659, 0, 0, 0.558659, -2718.233721, 92.05167)" fill="none" stroke-linejoin="round" d="M 5244.909257 138.667489 L 5236.32285 145.177217 C 5235.616639 144.659795 5234.672694 144.394092 5233.449061 144.394092 C 5231.72199 144.394092 5229.890037 144.960459 5227.981169 146.086201 C 5226.072302 147.218936 5222.429372 150.470303 5217.038395 155.854288 L 5217.038395 290.230165 L 5228.757302 301.949072 L 5163.660028 301.949072 L 5173.288272 292.313837 L 5175.378936 175.907885 C 5173.470069 176.600111 5169.561435 179.117299 5163.660028 183.459448 C 5155.849754 188.493824 5148.032487 191.011011 5140.222213 191.011011 L 5135.789166 191.011011 L 5135.789166 270.959693 L 5148.822605 283.720437 L 5079.278299 283.720437 L 5092.039043 270.959693 L 5092.039043 195.178356 C 5090.137168 193.961715 5086.920761 192.227652 5082.410799 189.969175 C 5077.900838 187.710699 5073.292986 185.459214 5068.60822 183.200737 C 5062.007594 179.900424 5058.09896 177.467143 5056.889312 175.907885 C 5051.512319 168.789837 5048.820326 162.88843 5048.820326 158.196671 C 5048.820326 156.987023 5049.079037 155.770382 5049.603452 154.553741 C 5050.470483 152.12046 5052.812866 149.861983 5056.630601 147.785303 C 5060.448336 145.701631 5063.748649 144.827607 5066.517555 145.177217 C 5068.25861 145.177217 5072.509861 145.526826 5079.278299 146.219053 C 5076.677205 147.435693 5073.118181 149.519366 5068.60822 152.470069 C 5066.517555 153.861515 5065.482711 155.945187 5065.482711 158.721086 C 5065.482711 164.447688 5067.999899 168.09761 5073.027283 169.656868 C 5075.117947 170.349095 5081.893377 172.432767 5093.353574 175.907885 L 5093.353574 61.844315 L 5081.368963 49.083572 L 5145.431393 49.083572 L 5138.662955 55.85201 L 5138.662955 170.698704 C 5139.180377 171.048314 5139.788697 171.223118 5140.480924 171.223118 C 5143.431627 171.223118 5147.598972 169.656868 5152.982957 166.53136 C 5156.632879 164.272883 5164.086552 160.713859 5175.378936 155.854288 L 5175.378936 50.125408 L 5166.778544 41.532008 L 5227.722458 41.532008 L 5219.129059 50.125408 L 5219.129059 140.751161 C 5221.212731 140.751161 5224.079528 140.058935 5227.722458 138.667489 C 5231.889803 137.276044 5237.623397 137.276044 5244.909257 138.667489 Z M 5244.909257 138.667489 " stroke="#2b2b2b" stroke-width="1" stroke-opacity="1" stroke-miterlimit="2"/></g><g clip-path="url(#82cdc32333)"><path fill="#805900" d="M 205.910156 170.246094 L 201.113281 173.882812 C 200.722656 173.589844 200.191406 173.445312 199.507812 173.445312 C 198.542969 173.445312 197.519531 173.761719 196.453125 174.390625 C 195.386719 175.023438 193.351562 176.839844 190.339844 179.847656 L 190.339844 254.917969 L 194.195312 257.515625 L 196.890625 261.464844 L 193.613281 261.464844 L 194.585938 260.738281 L 190.832031 261.464844 L 180.597656 261.464844 L 180.597656 260.738281 L 177.765625 261.464844 L 174.269531 261.464844 L 174.269531 260.738281 L 171.144531 261.464844 L 160.519531 261.464844 L 157.828125 257.515625 L 165.898438 256.082031 L 167.066406 191.050781 C 166 191.4375 163.816406 192.84375 160.519531 195.269531 C 156.15625 198.082031 151.789062 199.488281 147.425781 199.488281 L 144.949219 199.488281 L 144.949219 244.152344 L 149.53125 247.332031 L 152.230469 251.28125 L 142.710938 251.28125 L 143.4375 250.175781 L 140.558594 251.28125 L 140.558594 250.660156 L 122.339844 251.28125 L 124.179688 250.660156 L 118.570312 251.28125 L 113.378906 251.28125 L 112.675781 250.175781 L 111.855469 249.039062 L 110.6875 247.332031 L 120.507812 244.152344 L 120.507812 201.816406 C 119.449219 201.136719 117.648438 200.167969 115.128906 198.90625 C 112.609375 197.644531 110.035156 196.382812 107.417969 195.125 C 103.734375 193.28125 101.546875 191.921875 100.871094 191.050781 C 97.867188 187.074219 96.363281 183.773438 96.363281 181.15625 C 96.363281 180.476562 96.507812 179.796875 96.800781 179.121094 C 97.285156 177.761719 98.59375 176.5 100.726562 175.335938 C 102.859375 174.171875 109.140625 170.324219 110.6875 170.519531 C 110.6875 170.519531 113.539062 174.390625 113.378906 174.464844 C 111.929688 175.144531 109.9375 176.308594 107.417969 177.957031 C 106.253906 178.730469 105.671875 179.894531 105.671875 181.449219 C 105.671875 184.648438 107.078125 186.683594 109.890625 187.558594 C 111.058594 187.945312 114.839844 189.109375 121.242188 191.050781 L 121.242188 127.328125 L 111.855469 116.253906 L 147.644531 116.253906 L 150.335938 120.199219 L 146.554688 123.980469 L 146.554688 188.140625 C 146.84375 188.332031 147.183594 188.429688 147.570312 188.429688 C 149.21875 188.429688 151.546875 187.558594 154.554688 185.8125 C 156.59375 184.550781 160.761719 182.5625 167.066406 179.847656 L 167.066406 120.78125 L 159.570312 112.035156 L 193.613281 112.035156 L 196.308594 115.980469 L 191.507812 120.78125 L 191.507812 171.410156 C 192.671875 171.410156 193.78125 169.402344 195.816406 168.625 C 196.75 168.316406 202.011719 166.359375 203.21875 166.296875 C 203.21875 166.296875 205.910156 170.246094 205.910156 170.246094 Z M 205.910156 170.246094 " fill-opacity="1" fill-rule="nonzero"/></g><g clip-path="url(#46673e5c6a)"><path stroke-linecap="butt" transform="matrix(0.558659, 0, 0, 0.558659, -2724.205593, 92.777368)" fill="none" stroke-linejoin="round" d="M 5244.907853 138.669037 L 5236.321446 145.178765 C 5235.622227 144.654351 5234.671289 144.39564 5233.447656 144.39564 C 5231.720586 144.39564 5229.888632 144.962007 5227.979765 146.087749 C 5226.070897 147.220484 5222.427967 150.471851 5217.03699 155.855837 L 5217.03699 290.231713 L 5223.93828 294.881518 L 5228.76289 301.950621 L 5222.896444 301.950621 L 5224.637499 300.650074 L 5217.918006 301.950621 L 5199.598472 301.950621 L 5199.598472 300.650074 L 5194.529136 301.950621 L 5188.271127 301.950621 L 5188.271127 300.650074 L 5182.677376 301.950621 L 5163.658624 301.950621 L 5158.841006 294.881518 L 5173.286867 292.315385 L 5175.377532 175.909433 C 5173.468664 176.601659 5169.560031 179.118847 5163.658624 183.460996 C 5155.848349 188.495372 5148.031083 191.01256 5140.220808 191.01256 L 5135.787761 191.01256 L 5135.787761 270.961242 L 5143.989598 276.652883 L 5148.8212 283.721985 L 5131.781237 283.721985 L 5133.081784 281.743196 L 5127.928541 283.721985 L 5127.928541 282.610228 L 5095.316975 283.721985 L 5098.610295 282.610228 L 5088.569513 283.721985 L 5079.276895 283.721985 L 5078.018301 281.743196 L 5076.549941 279.708469 L 5074.459277 276.652883 L 5092.037638 270.961242 L 5092.037638 195.179904 C 5090.142755 193.963263 5086.919356 192.229201 5082.409395 189.970724 C 5077.899433 187.712247 5073.291581 185.45377 5068.606815 183.202285 C 5062.013181 179.901972 5058.097556 177.468691 5056.887907 175.909433 C 5051.510914 168.791385 5048.818922 162.882986 5048.818922 158.19822 C 5048.818922 156.981579 5049.077633 155.764938 5049.602047 154.555289 C 5050.469078 152.122008 5052.811461 149.863531 5056.629196 147.779859 C 5060.446931 145.696187 5071.69037 138.808881 5074.459277 139.158491 C 5074.459277 139.158491 5079.563574 146.087749 5079.276895 146.220601 C 5076.682793 147.437242 5073.116777 149.520914 5068.606815 152.471617 C 5066.523143 153.856071 5065.481307 155.939743 5065.481307 158.722634 C 5065.481307 164.449236 5067.998495 168.092166 5073.03287 169.658416 C 5075.123535 170.350643 5081.891973 172.434315 5093.35217 175.909433 L 5093.35217 61.845864 L 5076.549941 42.02301 L 5140.612371 42.02301 L 5145.429989 49.08512 L 5138.66155 55.853558 L 5138.66155 170.700252 C 5139.178972 171.04287 5139.787293 171.217674 5140.479519 171.217674 C 5143.430223 171.217674 5147.597567 169.658416 5152.981552 166.532908 C 5156.631475 164.274431 5164.09214 160.715407 5175.377532 155.855837 L 5175.377532 50.126956 L 5161.959522 34.471446 L 5222.896444 34.471446 L 5227.721054 41.533556 L 5219.127654 50.126956 L 5219.127654 140.75271 C 5221.211326 140.75271 5223.197108 137.158725 5226.840038 135.767279 C 5228.511171 135.214896 5237.929649 131.71181 5240.090235 131.599935 C 5240.090235 131.599935 5244.907853 138.669037 5244.907853 138.669037 Z M 5244.907853 138.669037 " stroke="#805900" stroke-width="1" stroke-opacity="1" stroke-miterlimit="2"/></g><g clip-path="url(#1b36d5d385)"><path fill="#cd9400" d="M 203.21875 166.300781 L 198.417969 169.9375 C 198.027344 169.644531 197.496094 169.5 196.816406 169.5 C 195.851562 169.5 194.828125 169.816406 193.761719 170.445312 C 192.695312 171.074219 190.660156 172.894531 187.648438 175.902344 L 187.648438 250.96875 L 194.195312 257.515625 L 157.828125 257.515625 L 163.207031 252.132812 L 164.375 187.101562 C 163.308594 187.492188 161.125 188.898438 157.828125 191.320312 C 153.464844 194.136719 149.09375 195.542969 144.734375 195.542969 L 142.257812 195.542969 L 142.257812 240.203125 L 149.535156 247.332031 L 110.6875 247.332031 L 117.816406 240.203125 L 117.816406 197.867188 C 116.753906 197.191406 114.957031 196.21875 112.4375 194.960938 C 109.917969 193.699219 107.339844 192.4375 104.726562 191.175781 C 101.039062 189.332031 98.855469 187.976562 98.179688 187.101562 C 95.175781 183.125 93.671875 179.828125 93.671875 177.210938 C 93.671875 176.53125 93.816406 175.851562 94.105469 175.171875 C 94.59375 173.816406 95.898438 172.554688 98.035156 171.390625 C 100.167969 170.226562 102.011719 169.742188 103.558594 169.9375 C 104.53125 169.9375 106.90625 170.128906 110.6875 170.519531 C 109.234375 171.195312 107.246094 172.359375 104.726562 174.007812 C 103.558594 174.785156 102.976562 175.949219 102.976562 177.5 C 102.976562 180.703125 104.386719 182.738281 107.195312 183.613281 C 108.363281 184 112.144531 185.164062 118.546875 187.101562 L 118.546875 123.382812 L 111.855469 116.253906 L 147.644531 116.253906 L 143.859375 120.035156 L 143.859375 184.195312 C 144.152344 184.386719 144.492188 184.484375 144.878906 184.484375 C 146.527344 184.484375 148.855469 183.613281 151.859375 181.867188 C 153.898438 180.605469 158.066406 178.617188 164.375 175.902344 L 164.375 116.835938 L 159.570312 112.035156 L 193.617188 112.035156 L 188.816406 116.835938 L 188.816406 167.460938 C 189.976562 167.460938 191.582031 167.074219 193.617188 166.300781 C 195.945312 165.523438 199.144531 165.523438 203.21875 166.300781 Z M 203.21875 166.300781 " fill-opacity="1" fill-rule="nonzero"/></g><g clip-path="url(#9503f75a36)"><path stroke-linecap="butt" transform="matrix(0.558659, 0, 0, 0.558659, -2726.89832, 88.830997)" fill="none" stroke-linejoin="round" d="M 5244.910219 138.670931 L 5236.316819 145.180658 C 5235.6176 144.656244 5234.666663 144.397533 5233.450022 144.397533 C 5231.722951 144.397533 5229.890998 144.9639 5227.98213 146.089643 C 5226.073263 147.215385 5222.430333 150.473745 5217.039356 155.85773 L 5217.039356 290.226614 L 5228.758263 301.945522 L 5163.66099 301.945522 L 5173.289233 292.310286 L 5175.379897 175.904334 C 5173.47103 176.603553 5169.562397 179.12074 5163.66099 183.455897 C 5155.850715 188.497265 5148.026456 191.014453 5140.223174 191.014453 L 5135.790127 191.014453 L 5135.790127 270.956143 L 5148.816574 283.716886 L 5079.27926 283.716886 L 5092.040004 270.956143 L 5092.040004 195.174805 C 5090.138129 193.965156 5086.921722 192.224101 5082.411761 189.972617 C 5077.901799 187.71414 5073.286955 185.455663 5068.609181 183.197186 C 5062.008555 179.896873 5058.099922 177.470584 5056.890273 175.904334 C 5051.51328 168.786286 5048.821288 162.884879 5048.821288 158.200113 C 5048.821288 156.983472 5049.079998 155.766831 5049.59742 154.55019 C 5050.471444 152.123901 5052.806835 149.865424 5056.631562 147.781752 C 5060.449297 145.69808 5063.74961 144.831049 5066.518516 145.180658 C 5068.259571 145.180658 5072.510822 145.523275 5079.27926 146.222494 C 5076.678166 147.432143 5073.119142 149.515815 5068.609181 152.466518 C 5066.518516 153.857964 5065.47668 155.941636 5065.47668 158.717535 C 5065.47668 164.451129 5068.00086 168.094059 5073.028244 169.66031 C 5075.118908 170.352536 5081.887346 172.436208 5093.347543 175.904334 L 5093.347543 61.847757 L 5081.369924 49.087013 L 5145.432354 49.087013 L 5138.656924 55.855451 L 5138.656924 170.702146 C 5139.181338 171.044763 5139.789658 171.219568 5140.481885 171.219568 C 5143.432589 171.219568 5147.599933 169.66031 5152.976926 166.534801 C 5156.626848 164.276325 5164.087513 160.717301 5175.379897 155.85773 L 5175.379897 50.128849 L 5166.779506 41.53545 L 5227.723419 41.53545 L 5219.13002 50.128849 L 5219.13002 140.747611 C 5221.2067 140.747611 5224.080489 140.055384 5227.723419 138.670931 C 5231.890764 137.279485 5237.617366 137.279485 5244.910219 138.670931 Z M 5244.910219 138.670931 " stroke="#cd9400" stroke-width="1" stroke-opacity="1" stroke-miterlimit="2"/></g><path stroke-linecap="butt" transform="matrix(0.646365, 0, 0, 0.642458, -6631.02844, 89.754105)" fill-opacity="1" fill="#2b2b2b" fill-rule="nonzero" stroke-linejoin="round" d="M 10693.899782 68.729853 C 10694.999683 74.457366 10693.797044 95.464329 10690.29791 131.750741 L 10681.402011 146.853865 C 10676.5975 151.88824 10673.098366 154.885761 10670.898565 155.840346 C 10668.698764 156.794932 10664.897459 157.445509 10659.301262 157.792078 C 10653.197418 158.138648 10649.202724 157.792078 10647.29905 156.752371 C 10646.301888 156.229477 10645.201987 155.189769 10644.198781 153.627167 C 10641.799547 150.325638 10639.200881 145.121019 10636.402782 138.001148 L 10631.997137 198.936541 L 10620.200401 179.407058 L 10617.601735 238.524481 L 10608.50036 226.023666 L 10605.09792 284.356749 L 10591.596943 184.617757 L 10599.701155 191.907872 L 10589.80205 124.460626 L 10598.601255 130.711033 L 10592.400716 30.1877 L 10590.59978 23.937293 L 10633.798073 24.721634 L 10634.601846 39.301864 C 10648.398951 33.398026 10657.101461 30.710594 10660.600595 31.233488 C 10662.498226 31.750302 10668.299899 37.569018 10677.902877 48.677475 C 10687.60255 59.792013 10692.90262 66.474112 10693.899782 68.729853 Z M 10658.001929 60.655396 C 10658.497488 58.399656 10658.799659 56.405362 10658.799659 54.666436 C 10658.799659 50.677849 10657.699758 48.507231 10655.403263 48.160662 C 10653.499589 48.160662 10646.50132 49.024045 10634.601846 50.762971 L 10633.798073 122.636577 C 10646.598015 124.892317 10654.400057 125.846903 10657.198155 125.500333 C 10658.799659 121.858316 10658.999091 100.243337 10658.001929 60.655396 Z M 10658.001929 138.001148 L 10644.500951 136.177099 C 10645.201987 141.211474 10647.002923 143.643539 10649.897716 143.473295 C 10651.80139 142.603832 10654.502795 140.779783 10658.001929 138.001148 Z M 10658.001929 138.001148 " stroke="#2b2b2b" stroke-width="1" stroke-opacity="1" stroke-miterlimit="2"/><g clip-path="url(#726ce62f45)"><path fill="#805900" d="M 274.285156 134.746094 C 274.996094 138.425781 274.21875 151.921875 271.957031 175.234375 L 266.207031 184.9375 C 263.101562 188.171875 260.839844 190.097656 259.417969 190.710938 C 257.996094 191.324219 255.539062 191.742188 251.921875 191.964844 C 247.976562 192.1875 245.394531 191.964844 244.164062 191.296875 C 243.519531 190.960938 242.808594 190.292969 242.160156 189.289062 C 240.609375 187.167969 238.929688 183.820312 237.121094 179.25 L 234.273438 218.398438 L 226.648438 205.851562 L 224.96875 243.828125 L 219.085938 235.800781 L 216.886719 273.277344 L 213.785156 268.738281 L 208.160156 209.195312 L 213.398438 213.882812 L 207 170.550781 L 212.6875 174.5625 L 208.679688 109.984375 L 207.515625 105.96875 L 232.335938 101.933594 L 235.4375 106.472656 L 235.957031 115.839844 C 244.875 112.046875 250.5 110.320312 252.761719 110.652344 C 253.988281 110.988281 257.738281 114.722656 263.945312 121.863281 C 270.210938 129 273.640625 133.296875 274.285156 134.746094 Z M 251.082031 129.558594 C 251.402344 128.109375 251.597656 126.828125 251.597656 125.710938 C 251.597656 123.144531 250.886719 121.75 249.398438 121.527344 C 248.171875 121.527344 243.648438 122.085938 235.957031 123.199219 L 235.4375 169.378906 C 243.710938 170.828125 248.753906 171.441406 250.5625 171.21875 C 251.597656 168.875 251.726562 154.988281 251.082031 129.558594 Z M 251.082031 179.25 L 242.355469 178.078125 C 242.808594 181.3125 243.96875 182.875 245.84375 182.761719 C 247.074219 182.207031 248.816406 181.035156 251.082031 179.25 Z M 251.082031 179.25 " fill-opacity="1" fill-rule="nonzero"/></g><g clip-path="url(#2c7c1027a5)"><path stroke-linecap="butt" transform="matrix(0.646365, 0, 0, 0.642458, -6637.8802, 90.588656)" fill="none" stroke-linejoin="round" d="M 10693.900087 68.732009 C 10694.999988 74.459523 10693.797349 95.466485 10690.298215 131.752898 L 10681.402316 146.856022 C 10676.597805 151.890397 10673.098671 154.887917 10670.89887 155.842503 C 10668.699069 156.797088 10664.897764 157.447666 10659.301567 157.794235 C 10653.197723 158.140804 10649.203029 157.794235 10647.299355 156.754527 C 10646.302192 156.231633 10645.202292 155.191925 10644.199086 153.629324 C 10641.799852 150.327795 10639.201186 145.117096 10636.403087 138.003305 L 10631.997442 198.938697 L 10620.200706 179.409214 L 10617.60204 238.520558 L 10608.500665 226.025823 L 10605.098225 284.358906 L 10600.299758 277.293756 L 10591.597248 184.613834 L 10599.70146 191.910029 L 10589.802355 124.462782 L 10598.60156 130.707109 L 10592.401021 30.189857 L 10590.600085 23.939449 L 10628.99991 17.658641 L 10633.798378 24.72379 L 10634.602151 39.304021 C 10648.399256 33.400183 10657.101766 30.712751 10660.6009 31.229565 C 10662.49853 31.752459 10668.300204 37.565094 10677.903182 48.679632 C 10687.596811 59.78809 10692.902925 66.476269 10693.900087 68.732009 Z M 10658.002234 60.657553 C 10658.497793 58.401813 10658.799964 56.407519 10658.799964 54.668593 C 10658.799964 50.673925 10657.700063 48.503307 10655.397524 48.156738 C 10653.499893 48.156738 10646.501625 49.026201 10634.602151 50.759048 L 10633.798378 122.638733 C 10646.598319 124.894474 10654.400361 125.849059 10657.19846 125.50249 C 10658.799964 121.854392 10658.999396 100.239413 10658.002234 60.657553 Z M 10658.002234 138.003305 L 10644.501256 136.179256 C 10645.202292 141.213631 10646.997185 143.645696 10649.898021 143.469371 C 10651.801695 142.605988 10654.497056 140.781939 10658.002234 138.003305 Z M 10658.002234 138.003305 " stroke="#805900" stroke-width="1" stroke-opacity="1" stroke-miterlimit="2"/></g><g clip-path="url(#0818703c87)"><path fill="#cd9400" d="M 271.117188 130.207031 C 271.828125 133.886719 271.054688 147.382812 268.789062 170.695312 L 263.039062 180.398438 C 259.933594 183.632812 257.671875 185.558594 256.25 186.171875 C 254.828125 186.785156 252.375 187.203125 248.753906 187.425781 C 244.8125 187.648438 242.226562 187.425781 240.996094 186.757812 C 240.351562 186.421875 239.640625 185.753906 238.992188 184.75 C 237.441406 182.628906 235.761719 179.285156 233.953125 174.710938 L 231.109375 213.859375 L 223.480469 201.3125 L 221.800781 239.292969 L 215.917969 231.261719 L 213.71875 268.738281 L 204.996094 204.660156 L 210.230469 209.34375 L 203.832031 166.011719 L 209.519531 170.027344 L 205.511719 105.445312 L 204.347656 101.429688 L 232.269531 101.933594 L 232.789062 111.300781 C 241.707031 107.507812 247.332031 105.78125 249.59375 106.113281 C 250.820312 106.449219 254.570312 110.1875 260.777344 117.324219 C 267.046875 124.464844 270.472656 128.757812 271.117188 130.207031 Z M 247.914062 125.019531 C 248.238281 123.570312 248.429688 122.289062 248.429688 121.171875 C 248.429688 118.605469 247.71875 117.210938 246.234375 116.988281 C 245.003906 116.988281 240.480469 117.546875 232.789062 118.664062 L 232.269531 164.839844 C 240.542969 166.289062 245.585938 166.902344 247.394531 166.679688 C 248.429688 164.335938 248.558594 150.449219 247.914062 125.019531 Z M 247.914062 174.710938 L 239.1875 173.539062 C 239.640625 176.773438 240.804688 178.335938 242.679688 178.222656 C 243.90625 177.667969 245.652344 176.496094 247.914062 174.710938 Z M 247.914062 174.710938 " fill-opacity="1" fill-rule="nonzero"/></g><g clip-path="url(#c7e881bb4c)"><path stroke-linecap="butt" transform="matrix(0.646365, 0, 0, 0.642458, -6641.047479, 86.050336)" fill="none" stroke-linejoin="round" d="M 10693.899021 68.730854 C 10694.998922 74.458368 10693.802327 95.465331 10690.297149 131.751743 L 10681.40125 146.854867 C 10676.596739 151.889242 10673.097605 154.886762 10670.897804 155.841348 C 10668.698003 156.795933 10664.902742 157.446511 10659.300501 157.79308 C 10653.2027 158.139649 10649.201963 157.79308 10647.298289 156.753372 C 10646.301127 156.230478 10645.201226 155.19077 10644.19802 153.628169 C 10641.798786 150.32664 10639.20012 145.122021 10636.402021 138.00215 L 10632.002419 198.937542 L 10620.19964 179.408059 L 10617.600974 238.525483 L 10608.499599 226.024668 L 10605.097159 284.357751 L 10591.602225 184.618759 L 10599.700394 191.908874 L 10589.801289 124.461627 L 10598.600494 130.712035 L 10592.399955 30.188702 L 10590.599019 23.938294 L 10633.797312 24.722635 L 10634.601085 39.302866 C 10648.39819 33.399028 10657.1007 30.711596 10660.599834 31.22841 C 10662.497465 31.751304 10668.299138 37.57002 10677.902116 48.678477 C 10687.601788 59.793015 10692.901859 66.475114 10693.899021 68.730854 Z M 10658.001168 60.656398 C 10658.502771 58.400658 10658.798898 56.406364 10658.798898 54.667438 C 10658.798898 50.672771 10657.698997 48.502152 10655.402502 48.155583 C 10653.498827 48.155583 10646.500559 49.025046 10634.601085 50.763973 L 10633.797312 122.637578 C 10646.597254 124.893319 10654.399296 125.847904 10657.197394 125.501335 C 10658.798898 121.853237 10658.99833 100.238258 10658.001168 60.656398 Z M 10658.001168 138.00215 L 10644.50019 136.178101 C 10645.201226 141.212476 10647.002162 143.644541 10649.902999 143.468216 C 10651.800629 142.604833 10654.502034 140.780784 10658.001168 138.00215 Z M 10658.001168 138.00215 " stroke="#cd9400" stroke-width="1" stroke-opacity="1" stroke-miterlimit="2"/></g><g clip-path="url(#f669e505ea)"><g clip-path="url(#1fe95e336a)"><g clip-path="url(#9f1df85d80)"><path fill="#2d2d2d" d="M 85.015625 88.550781 L 109.273438 73.859375 C 109.707031 73.597656 110.164062 73.4375 110.640625 73.375 C 111.117188 73.3125 111.601562 73.351562 112.089844 73.496094 C 112.570312 73.636719 112.996094 73.871094 113.367188 74.183594 C 113.738281 74.5 114.039062 74.886719 114.257812 75.339844 L 114.296875 75.421875 C 114.59375 74.007812 115.03125 72.625 115.601562 71.304688 C 117.765625 66.300781 121.832031 62.125 127.296875 59.960938 C 132.757812 57.792969 138.585938 58.046875 143.585938 60.207031 C 144.191406 60.46875 144.785156 60.757812 145.363281 61.074219 C 145.429688 60.792969 145.535156 60.515625 145.671875 60.242188 C 145.90625 59.789062 146.21875 59.40625 146.59375 59.105469 C 146.96875 58.800781 147.40625 58.578125 147.890625 58.449219 L 175.464844 51.039062 C 175.988281 50.898438 176.511719 50.875 177.015625 50.96875 C 177.519531 51.058594 178.003906 51.269531 178.445312 51.589844 C 178.890625 51.910156 179.242188 52.300781 179.484375 52.746094 C 179.730469 53.199219 179.875 53.699219 179.90625 54.238281 L 181.273438 77.554688 C 181.324219 78.449219 181.039062 79.289062 180.519531 79.949219 C 179.996094 80.605469 179.246094 81.078125 178.363281 81.234375 L 170.925781 82.542969 C 169.386719 86.320312 167.378906 91.367188 167.375 91.382812 L 164.761719 91.09375 L 163.613281 83.832031 L 156.757812 85.042969 C 156.414062 85.101562 156.074219 85.109375 155.746094 85.074219 C 155.632812 85.53125 155.496094 85.980469 155.351562 86.425781 C 153.863281 90.921875 150.890625 94.898438 146.769531 97.578125 L 142.390625 111.773438 L 139.75 111.632812 L 137.6875 100.878906 C 133.183594 101.425781 128.695312 100.496094 124.835938 98.363281 C 124.296875 98.066406 123.769531 97.746094 123.257812 97.398438 C 123.019531 97.820312 122.6875 98.199219 122.269531 98.503906 L 116.699219 102.585938 L 121.113281 108.394531 L 119.519531 110.480469 C 119.503906 110.472656 114.140625 108.300781 110.742188 106.957031 L 104.695312 111.386719 C 103.976562 111.914062 103.117188 112.128906 102.289062 112.050781 C 101.457031 111.972656 100.652344 111.597656 100.042969 110.941406 L 84.257812 93.945312 C 83.890625 93.550781 83.625 93.101562 83.472656 92.617188 C 83.320312 92.128906 83.277344 91.605469 83.355469 91.070312 C 83.429688 90.539062 83.613281 90.050781 83.894531 89.621094 C 84.179688 89.1875 84.558594 88.828125 85.015625 88.550781 Z M 85.015625 88.550781 " fill-opacity="1" fill-rule="nonzero"/></g></g></g><g clip-path="url(#99d078b499)"><g clip-path="url(#877d3d13f3)"><g clip-path="url(#b39602529c)"><path fill="#2d2d2d" d="M 175.203125 104.347656 C 177.277344 104.953125 178.875 106.308594 179.574219 108.078125 C 180.421875 110.214844 179.777344 112.039062 178.433594 113.511719 C 177.398438 114.664062 176.015625 115.488281 174.300781 115.949219 C 172.9375 116.351562 171.425781 116.441406 169.878906 116.039062 C 169.339844 115.90625 168.84375 115.714844 168.386719 115.5 C 168.121094 115.6875 167.816406 115.832031 167.457031 115.910156 C 161.613281 117.304688 155.800781 119.136719 150.464844 121.664062 C 149.773438 122.019531 149.03125 122.070312 148.296875 121.804688 C 147.597656 121.550781 147.089844 121.09375 146.804688 120.453125 C 145.214844 121.566406 143.667969 122.757812 142.121094 123.949219 C 141.398438 124.511719 140.519531 124.664062 139.679688 124.386719 C 139.265625 124.257812 138.921875 124.039062 138.648438 123.738281 C 137.046875 125.097656 135.441406 126.453125 133.855469 127.855469 C 133.164062 128.5 132.308594 128.734375 131.496094 128.5 C 130.707031 128.28125 130.15625 127.695312 129.957031 126.859375 C 128.445312 128.710938 126.964844 130.640625 125.488281 132.5625 C 125.0625 133.117188 124.519531 133.488281 123.957031 133.648438 C 122.960938 135.503906 121.972656 137.351562 120.984375 139.199219 C 120.527344 140.070312 119.839844 140.675781 119.042969 140.875 C 118.253906 141.066406 117.5625 140.804688 117.113281 140.113281 C 116.890625 139.785156 116.679688 139.460938 116.464844 139.125 C 115.507812 140.585938 114.398438 141.914062 113.121094 143.007812 C 109.59375 146.058594 106.359375 145.746094 103.714844 143.15625 C 102.335938 141.808594 101.261719 140.039062 100.445312 137.984375 C 99.574219 135.78125 98.988281 133.316406 98.625 130.761719 C 98.277344 128.359375 98.132812 125.886719 98.1875 123.375 C 98.246094 120.867188 98.496094 118.308594 98.957031 115.753906 C 99.984375 110.316406 102.078125 104.816406 106.335938 101.789062 C 109.609375 99.648438 112.65625 100.085938 115.195312 102.109375 C 115.03125 101.066406 115.445312 99.972656 116.28125 99.253906 C 118.230469 97.679688 120.207031 96.140625 122.1875 94.613281 C 122.941406 94.074219 123.820312 93.953125 124.625 94.292969 C 124.820312 94.375 125.011719 94.484375 125.171875 94.613281 C 127.148438 93.207031 129.167969 91.875 131.191406 90.558594 C 131.957031 90.058594 132.847656 89.980469 133.664062 90.363281 C 133.832031 90.445312 133.980469 90.535156 134.125 90.636719 C 135.988281 89.542969 137.851562 88.449219 139.746094 87.410156 C 140.550781 86.988281 141.464844 86.984375 142.296875 87.402344 C 142.667969 87.585938 142.96875 87.824219 143.207031 88.113281 C 143.390625 87.976562 143.585938 87.867188 143.804688 87.773438 C 149.164062 85.851562 154.605469 84.152344 160.136719 82.671875 C 160.933594 82.472656 161.769531 82.597656 162.558594 83.054688 C 163.335938 83.519531 163.84375 84.164062 164.015625 84.917969 C 164.351562 86.363281 164.683594 87.796875 165.03125 89.246094 C 164.839844 86.707031 164.652344 84.164062 164.46875 81.617188 C 164.378906 80.402344 165.371094 79.503906 166.792969 79.527344 C 170 79.667969 173.222656 79.839844 176.484375 80.09375 C 177.445312 80.179688 178.335938 80.609375 179.027344 81.308594 C 179.707031 82.015625 179.984375 82.792969 179.820312 83.519531 C 179.121094 86.519531 178.425781 89.59375 178.039062 92.714844 C 177.648438 95.867188 177.582031 99.101562 177.734375 102.367188 C 177.789062 103.445312 176.972656 104.210938 175.722656 104.308594 C 175.542969 104.324219 175.371094 104.335938 175.203125 104.347656 Z M 168.980469 104.839844 C 168.355469 104.792969 167.761719 104.570312 167.210938 104.171875 C 166.488281 103.644531 166.074219 102.960938 166.011719 102.210938 C 165.800781 99.46875 165.59375 96.71875 165.394531 93.972656 C 164.878906 94.839844 164.410156 95.730469 163.945312 96.609375 C 163.039062 98.304688 162.160156 100.011719 161.300781 101.761719 C 160.765625 102.832031 160.21875 103.890625 159.671875 104.949219 C 160.90625 104.605469 162.140625 104.261719 163.371094 103.917969 C 164.152344 103.707031 164.957031 103.839844 165.726562 104.269531 C 166.496094 104.707031 166.996094 105.316406 167.191406 106.050781 C 167.191406 106.074219 167.199219 106.089844 167.203125 106.101562 C 167.730469 105.609375 168.324219 105.183594 168.980469 104.839844 Z M 144.75 97.378906 C 145.167969 100.324219 145.640625 103.261719 146.1875 106.199219 C 146.78125 104.886719 147.378906 103.589844 147.96875 102.300781 C 148.429688 101.28125 148.898438 100.257812 149.371094 99.238281 C 149.179688 99.328125 149 99.417969 148.8125 99.515625 C 148.09375 99.863281 147.3125 99.894531 146.542969 99.585938 C 145.777344 99.285156 145.242188 98.742188 144.976562 98.003906 C 144.898438 97.800781 144.824219 97.589844 144.75 97.378906 Z M 111.449219 118.347656 C 111.207031 117.789062 110.929688 117.269531 110.625 116.816406 C 110.554688 116.71875 110.433594 116.566406 110.304688 116.421875 C 109.839844 117.410156 109.515625 119.679688 109.445312 120.304688 C 109.382812 120.875 109.324219 121.457031 109.285156 122.039062 C 110.003906 120.808594 110.722656 119.578125 111.449219 118.347656 Z M 111.449219 118.347656 " fill-opacity="1" fill-rule="evenodd"/></g></g></g><g clip-path="url(#6e72767da6)"><g clip-path="url(#5e97f37ec6)"><g clip-path="url(#50758db792)"><path fill="#2d2d2d" d="M 177.292969 105.675781 C 179.382812 106.339844 180.996094 107.710938 181.699219 109.484375 C 182.546875 111.621094 181.890625 113.425781 180.539062 114.867188 C 179.503906 116.023438 178.117188 116.84375 176.394531 117.25 C 175.011719 117.636719 173.515625 117.730469 171.964844 117.324219 C 171.421875 117.183594 170.925781 116.988281 170.464844 116.761719 C 170.203125 116.933594 169.882812 117.066406 169.515625 117.125 C 163.652344 118.449219 157.820312 120.203125 152.464844 122.660156 C 151.773438 123.011719 151.03125 123.058594 150.285156 122.792969 C 149.601562 122.550781 149.085938 122.078125 148.804688 121.441406 C 147.21875 122.539062 145.648438 123.675781 144.101562 124.867188 C 143.375 125.421875 142.488281 125.570312 141.648438 125.277344 C 141.234375 125.132812 140.871094 124.898438 140.605469 124.59375 C 138.996094 125.9375 137.386719 127.285156 135.792969 128.636719 C 135.09375 129.261719 134.238281 129.5 133.425781 129.269531 C 132.636719 129.039062 132.082031 128.453125 131.886719 127.621094 C 130.363281 129.449219 128.871094 131.320312 127.402344 133.25 C 126.972656 133.800781 126.429688 134.171875 125.855469 134.3125 C 124.847656 136.113281 123.859375 137.960938 122.875 139.808594 C 122.414062 140.675781 121.710938 141.234375 120.902344 141.410156 C 120.113281 141.597656 119.425781 141.339844 118.972656 140.648438 C 118.753906 140.320312 118.539062 139.988281 118.324219 139.65625 C 117.371094 141.121094 116.25 142.429688 114.953125 143.464844 C 111.425781 146.496094 108.179688 146.128906 105.539062 143.546875 C 104.160156 142.203125 103.078125 140.441406 102.265625 138.386719 C 101.390625 136.183594 100.816406 133.714844 100.441406 131.164062 C 100.09375 128.757812 99.960938 126.28125 100.015625 123.773438 C 100.070312 121.261719 100.34375 118.75 100.800781 116.230469 C 101.820312 110.792969 103.9375 105.355469 108.222656 102.394531 C 111.488281 100.261719 114.558594 100.753906 117.101562 102.777344 C 116.933594 101.734375 117.335938 100.644531 118.1875 99.957031 C 120.152344 98.417969 122.125 96.875 124.132812 95.414062 C 124.886719 94.875 125.757812 94.761719 126.5625 95.101562 C 126.769531 95.1875 126.949219 95.296875 127.113281 95.417969 C 129.101562 94.054688 131.117188 92.742188 133.140625 91.429688 C 133.925781 90.960938 134.824219 90.921875 135.644531 91.308594 C 135.8125 91.382812 135.960938 91.472656 136.101562 91.574219 C 137.96875 90.488281 139.847656 89.421875 141.742188 88.417969 C 142.542969 87.996094 143.460938 87.996094 144.296875 88.410156 C 144.664062 88.589844 144.96875 88.839844 145.203125 89.117188 C 145.378906 88.988281 145.582031 88.882812 145.8125 88.808594 C 151.179688 86.9375 156.640625 85.304688 162.195312 83.886719 C 162.996094 83.699219 163.84375 83.859375 164.625 84.328125 C 165.410156 84.796875 165.925781 85.441406 166.097656 86.195312 C 166.425781 87.644531 166.773438 89.085938 167.109375 90.535156 C 166.914062 87.992188 166.730469 85.445312 166.539062 82.886719 C 166.449219 81.667969 167.445312 80.78125 168.867188 80.835938 C 172.085938 81.003906 175.320312 81.210938 178.597656 81.503906 C 179.550781 81.589844 180.449219 82.015625 181.132812 82.726562 C 181.824219 83.429688 182.105469 84.214844 181.9375 84.9375 C 181.246094 87.945312 180.546875 91.019531 180.144531 94.109375 C 179.753906 97.25 179.6875 100.488281 179.851562 103.757812 C 179.898438 104.839844 179.078125 105.597656 177.808594 105.644531 C 177.636719 105.65625 177.464844 105.664062 177.292969 105.675781 Z M 171.042969 106.09375 C 170.429688 106.050781 169.828125 105.828125 169.285156 105.429688 C 168.5625 104.898438 168.144531 104.210938 168.082031 103.453125 C 167.871094 100.71875 167.65625 97.960938 167.453125 95.21875 C 166.945312 96.070312 166.476562 96.972656 166.011719 97.847656 C 165.109375 99.546875 164.222656 101.234375 163.34375 102.941406 C 162.820312 104.007812 162.269531 105.066406 161.726562 106.132812 C 162.960938 105.792969 164.195312 105.449219 165.441406 105.136719 C 166.222656 104.957031 167.039062 105.089844 167.800781 105.527344 C 168.570312 105.960938 169.070312 106.574219 169.269531 107.3125 C 169.269531 107.332031 169.273438 107.347656 169.28125 107.363281 C 169.804688 106.867188 170.386719 106.445312 171.042969 106.09375 Z M 146.753906 98.402344 C 147.167969 101.351562 147.648438 104.296875 148.195312 107.234375 C 148.789062 105.925781 149.386719 104.621094 149.972656 103.328125 C 150.4375 102.3125 150.90625 101.316406 151.390625 100.332031 C 151.207031 100.410156 151.011719 100.488281 150.828125 100.570312 C 150.097656 100.890625 149.316406 100.917969 148.546875 100.617188 C 147.777344 100.3125 147.242188 99.765625 146.980469 99.035156 C 146.898438 98.824219 146.828125 98.613281 146.753906 98.402344 Z M 113.328125 118.933594 C 113.085938 118.371094 112.808594 117.847656 112.503906 117.390625 C 112.433594 117.292969 112.308594 117.136719 112.171875 116.996094 C 111.703125 117.945312 111.375 120.21875 111.304688 120.839844 C 111.242188 121.410156 111.183594 121.992188 111.148438 122.574219 C 111.867188 121.339844 112.582031 120.113281 113.328125 118.933594 Z M 113.328125 118.933594 " fill-opacity="1" fill-rule="evenodd"/></g></g></g><g clip-path="url(#26c5e6094b)"><g clip-path="url(#1793f70b9d)"><g clip-path="url(#29779a4d93)"><path fill="#c69107" d="M 107.210938 103.992188 C 109.691406 102.292969 112.125 102.664062 114.414062 105.019531 C 115.597656 106.230469 116.550781 107.757812 117.277344 109.589844 C 118.171875 111.839844 118.730469 114.269531 118.980469 116.867188 C 119.226562 119.464844 119.160156 122.289062 118.800781 125.320312 C 119.34375 126.308594 120.660156 128.203125 122.765625 130.984375 C 121.507812 133.320312 120.261719 135.660156 119.027344 138.035156 C 118.1875 136.765625 117.351562 135.488281 116.511719 134.207031 C 115.257812 137.121094 113.796875 139.226562 112.171875 140.605469 C 109.75 142.664062 107.46875 142.644531 105.273438 140.492188 C 104.148438 139.386719 103.214844 137.917969 102.46875 136.039062 C 101.746094 134.21875 101.183594 132.035156 100.8125 129.476562 C 100.496094 127.289062 100.371094 125.027344 100.417969 122.714844 C 100.464844 120.433594 100.714844 118.09375 101.160156 115.722656 C 102.238281 109.925781 104.257812 106.011719 107.210938 103.992188 Z M 110.253906 124.714844 C 111.542969 122.507812 112.835938 120.304688 114.160156 118.195312 C 113.699219 116.828125 113.171875 115.636719 112.507812 114.703125 C 111.507812 113.289062 110.5 112.902344 109.558594 113.582031 C 108.289062 114.496094 107.453125 116.765625 107.070312 120.34375 C 106.757812 123.238281 106.777344 125.777344 107.085938 127.917969 C 107.246094 129.015625 107.476562 129.9375 107.773438 130.683594 C 108.191406 131.742188 108.757812 132.425781 109.480469 132.707031 C 110.292969 133.023438 111.167969 132.785156 112.125 132.058594 C 112.730469 131.601562 113.265625 130.925781 113.738281 130.039062 C 112.570312 128.265625 111.414062 126.492188 110.257812 124.714844 Z M 117.554688 101.167969 C 119.511719 99.613281 121.484375 98.066406 123.472656 96.554688 C 123.921875 100.3125 124.414062 103.871094 124.96875 107.191406 C 125.527344 110.515625 126.109375 113.625 126.75 116.480469 C 127.726562 115.339844 128.714844 114.191406 129.707031 113.054688 C 129.148438 110.324219 128.585938 107.585938 128.027344 104.847656 C 127.46875 102.113281 126.917969 99.375 126.367188 96.632812 C 128.375 95.199219 130.425781 93.859375 132.484375 92.519531 C 133.195312 98.292969 133.980469 103.570312 134.859375 108.339844 C 135.742188 113.105469 136.703125 117.425781 137.746094 121.226562 C 135.933594 122.761719 134.121094 124.289062 132.339844 125.90625 C 132.027344 124.367188 131.710938 122.820312 131.40625 121.269531 C 129.695312 123.339844 127.113281 126.519531 123.734375 130.933594 C 122.699219 125.960938 121.667969 120.996094 120.636719 116.035156 C 119.609375 111.078125 118.582031 106.121094 117.554688 101.167969 Z M 134.699219 93.046875 C 136.808594 91.816406 138.914062 90.582031 141.058594 89.417969 C 141.679688 94.957031 142.414062 100.117188 143.273438 104.847656 C 144.128906 109.578125 145.085938 113.890625 146.144531 117.78125 C 144.261719 119.105469 142.421875 120.527344 140.582031 121.9375 C 139.597656 117.121094 138.617188 112.304688 137.632812 107.480469 C 136.648438 102.671875 135.664062 97.847656 134.699219 93.046875 Z M 162.984375 92.238281 C 162.222656 93.519531 160.8125 96.242188 158.726562 100.492188 C 158.039062 101.898438 157.316406 103.289062 156.644531 104.71875 C 155.757812 106.609375 155.171875 108.046875 154.914062 109.035156 C 158.070312 108.003906 161.257812 107.058594 164.46875 106.167969 C 165.125 108.628906 165.78125 111.082031 166.4375 113.546875 C 159.320312 115.308594 153.585938 117.324219 149.195312 119.445312 C 148.273438 117.09375 147.359375 114.738281 146.445312 112.378906 C 147.058594 110.730469 148.339844 107.675781 150.386719 103.25 C 151.777344 100.242188 153.25 97.28125 154.695312 94.324219 C 152.394531 95.089844 149.980469 96.046875 147.453125 97.207031 C 146.59375 94.777344 145.730469 92.347656 144.867188 89.90625 C 150.230469 88 155.679688 86.3125 161.226562 84.84375 C 161.609375 86.484375 162.1875 88.953125 162.984375 92.238281 Z M 171.878906 106.429688 C 172.828125 106.175781 173.777344 106.242188 174.714844 106.519531 C 175.796875 106.84375 176.527344 107.425781 176.875 108.300781 C 177.34375 109.488281 177.058594 110.652344 176.035156 111.792969 C 175.238281 112.679688 174.21875 113.269531 173 113.632812 C 172.023438 113.917969 171.101562 113.957031 170.238281 113.730469 C 169.191406 113.453125 168.492188 112.886719 168.144531 112.007812 C 167.675781 110.828125 167.902344 109.621094 168.84375 108.414062 C 169.601562 107.441406 170.613281 106.773438 171.878906 106.429688 Z M 167.21875 81.769531 C 170.421875 81.90625 173.644531 82.082031 176.902344 82.324219 C 175.996094 86.347656 175.417969 89.527344 175.144531 91.804688 C 174.769531 94.90625 174.667969 98.246094 174.863281 101.851562 C 172.824219 102.007812 170.785156 102.164062 168.761719 102.371094 C 168.496094 98.917969 168.242188 95.496094 167.984375 92.074219 C 167.734375 88.652344 167.472656 85.210938 167.21875 81.769531 Z M 167.21875 81.769531 " fill-opacity="1" fill-rule="nonzero"/></g></g></g><g clip-path="url(#84616bcaa7)"><g clip-path="url(#c634dea9a5)"><g clip-path="url(#3d657844b3)"><path fill="#f1ca58" d="M 82.601562 86.875 L 106.863281 72.183594 C 107.398438 71.859375 107.984375 71.785156 108.585938 71.960938 C 109.191406 72.140625 109.640625 72.523438 109.914062 73.085938 L 119.015625 91.890625 C 119.472656 92.832031 119.195312 93.941406 118.351562 94.5625 L 111.660156 99.464844 L 116.914062 106.375 C 116.914062 106.375 111.261719 104.082031 107.421875 102.570312 L 100.777344 107.445312 C 99.890625 108.09375 98.675781 107.976562 97.929688 107.175781 L 82.144531 90.179688 C 81.6875 89.6875 81.496094 89.078125 81.589844 88.414062 C 81.679688 87.753906 82.03125 87.222656 82.601562 86.875 Z M 82.601562 86.875 " fill-opacity="1" fill-rule="evenodd"/></g></g></g><g clip-path="url(#dc3af8b4b2)"><g clip-path="url(#1d07208b73)"><g clip-path="url(#8a0c05b1fa)"><path fill="#2d2d2d" d="M 81.902344 85.707031 L 106.15625 71.019531 C 106.59375 70.753906 107.050781 70.589844 107.523438 70.53125 C 108 70.46875 108.488281 70.511719 108.972656 70.652344 C 109.453125 70.792969 109.882812 71.027344 110.253906 71.34375 C 110.625 71.660156 110.921875 72.042969 111.140625 72.496094 L 120.246094 91.296875 C 120.613281 92.0625 120.683594 92.898438 120.492188 93.671875 L 120.496094 93.675781 C 120.304688 94.449219 119.84375 95.152344 119.152344 95.660156 L 113.585938 99.742188 L 118 105.554688 L 116.40625 107.636719 C 116.390625 107.628906 111.023438 105.457031 107.625 104.113281 L 101.578125 108.542969 C 100.859375 109.070312 100.003906 109.285156 99.171875 109.207031 C 98.339844 109.128906 97.539062 108.753906 96.929688 108.097656 L 81.140625 91.101562 C 80.773438 90.703125 80.511719 90.257812 80.359375 89.773438 C 80.207031 89.285156 80.164062 88.765625 80.238281 88.226562 C 80.3125 87.695312 80.496094 87.207031 80.78125 86.777344 C 81.066406 86.34375 81.441406 85.984375 81.902344 85.707031 Z M 107.566406 73.351562 L 83.308594 88.039062 C 83.195312 88.109375 83.109375 88.1875 83.050781 88.277344 C 82.992188 88.363281 82.957031 88.472656 82.9375 88.605469 C 82.921875 88.730469 82.925781 88.84375 82.960938 88.949219 C 82.992188 89.058594 83.054688 89.160156 83.140625 89.253906 L 98.929688 106.246094 C 99.066406 106.398438 99.246094 106.480469 99.429688 106.5 C 99.613281 106.515625 99.808594 106.464844 99.972656 106.34375 L 107.222656 101.03125 L 107.921875 101.308594 C 109.558594 101.949219 111.296875 102.644531 112.835938 103.261719 L 109.738281 99.1875 L 117.546875 93.464844 C 117.699219 93.351562 117.804688 93.191406 117.847656 93.019531 L 117.847656 93.015625 C 117.890625 92.847656 117.871094 92.660156 117.785156 92.480469 L 108.683594 73.679688 C 108.628906 73.566406 108.566406 73.476562 108.492188 73.417969 C 108.421875 73.355469 108.320312 73.304688 108.199219 73.269531 C 108.085938 73.234375 107.976562 73.226562 107.875 73.238281 C 107.773438 73.25 107.667969 73.289062 107.566406 73.351562 Z M 107.566406 73.351562 " fill-opacity="1" fill-rule="nonzero"/></g></g></g><g clip-path="url(#271f8a6c8c)"><g clip-path="url(#18172a502b)"><g clip-path="url(#8a6b195cb1)"><path fill="#c69107" d="M 96.132812 90.570312 L 98.910156 88.46875 C 98.3125 87.671875 98.386719 86.800781 99.230469 86.160156 C 99.992188 85.589844 100.839844 85.707031 101.425781 86.484375 C 102.398438 87.730469 101.496094 88.871094 99.875 90.101562 L 98.839844 90.882812 L 101.355469 94.03125 L 103.941406 92.070312 L 103.050781 90.710938 C 105.300781 88.984375 105.992188 86.5625 104.304688 84.332031 C 102.492188 81.933594 99.835938 81.90625 97.4375 83.71875 C 94.710938 85.78125 94.511719 88.539062 96.132812 90.570312 Z M 106.621094 94.605469 C 105.925781 93.691406 104.683594 93.519531 103.648438 94.300781 C 102.597656 95.097656 102.421875 96.339844 103.113281 97.257812 C 103.78125 98.136719 105.023438 98.308594 106.078125 97.511719 C 107.113281 96.730469 107.285156 95.484375 106.621094 94.605469 Z M 106.621094 94.605469 " fill-opacity="1" fill-rule="nonzero"/></g></g></g><g clip-path="url(#07f5ebc9f6)"><g clip-path="url(#b3c910575d)"><g clip-path="url(#33c6d0030d)"><path fill="#c42222" d="M 172.707031 49.511719 L 145.132812 56.921875 C 144.523438 57.085938 144.058594 57.460938 143.769531 58.019531 C 143.480469 58.582031 143.445312 59.175781 143.664062 59.769531 L 150.996094 79.480469 C 151.363281 80.46875 152.367188 81.042969 153.402344 80.859375 L 161.628906 79.410156 L 162.992188 88.039062 C 162.992188 88.039062 165.261719 82.332031 166.835938 78.488281 L 175.007812 77.050781 C 176.09375 76.859375 176.859375 75.894531 176.792969 74.792969 L 175.429688 51.476562 C 175.390625 50.804688 175.082031 50.242188 174.535156 49.847656 C 173.988281 49.453125 173.355469 49.339844 172.707031 49.511719 Z M 172.707031 49.511719 " fill-opacity="1" fill-rule="evenodd"/></g></g></g><g clip-path="url(#ec68134a56)"><g clip-path="url(#edccff4200)"><g clip-path="url(#08d93e9678)"><path fill="#2d2d2d" d="M 173.058594 50.828125 L 145.488281 58.238281 C 145.363281 58.269531 145.261719 58.320312 145.183594 58.386719 C 145.101562 58.449219 145.035156 58.535156 144.980469 58.644531 C 144.921875 58.757812 144.890625 58.863281 144.882812 58.964844 C 144.878906 59.066406 144.894531 59.175781 144.9375 59.292969 L 152.273438 79.003906 C 152.339844 79.1875 152.46875 79.335938 152.628906 79.425781 C 152.785156 79.515625 152.972656 79.550781 153.164062 79.519531 L 162.753906 77.828125 L 163.5625 82.941406 C 164.21875 81.308594 164.949219 79.5 165.574219 77.972656 L 165.859375 77.28125 L 174.769531 75.710938 C 174.972656 75.675781 175.144531 75.566406 175.261719 75.417969 C 175.378906 75.273438 175.441406 75.078125 175.429688 74.871094 L 174.066406 51.558594 C 174.058594 51.425781 174.027344 51.308594 173.972656 51.210938 C 173.917969 51.113281 173.839844 51.023438 173.738281 50.949219 C 173.636719 50.875 173.527344 50.828125 173.417969 50.808594 C 173.308594 50.789062 173.1875 50.796875 173.058594 50.828125 Z M 144.777344 55.605469 L 172.351562 48.199219 C 172.875 48.054688 173.394531 48.035156 173.902344 48.125 C 174.40625 48.21875 174.886719 48.425781 175.332031 48.746094 C 175.777344 49.066406 176.125 49.457031 176.371094 49.90625 C 176.617188 50.355469 176.761719 50.855469 176.789062 51.398438 L 178.15625 74.710938 C 178.207031 75.605469 177.921875 76.449219 177.402344 77.105469 C 176.882812 77.765625 176.128906 78.234375 175.246094 78.390625 L 167.8125 79.699219 C 166.273438 83.476562 164.265625 88.523438 164.257812 88.539062 L 162.40625 88.335938 L 160.5 80.992188 L 153.644531 82.199219 C 152.796875 82.347656 151.964844 82.1875 151.269531 81.789062 C 150.578125 81.394531 150.019531 80.757812 149.722656 79.957031 L 142.390625 60.246094 C 142.210938 59.769531 142.136719 59.285156 142.167969 58.804688 C 142.195312 58.316406 142.328125 57.847656 142.558594 57.398438 C 142.792969 56.945312 143.101562 56.566406 143.476562 56.257812 C 143.855469 55.957031 144.289062 55.734375 144.777344 55.605469 Z M 144.777344 55.605469 " fill-opacity="1" fill-rule="nonzero"/></g></g></g><g clip-path="url(#764d67fba8)"><g clip-path="url(#46bc322630)"><g clip-path="url(#180d1ed4d8)"><path fill="#c69107" d="M 160.09375 68.433594 L 163.589844 67.789062 L 161.941406 56.148438 L 157.480469 56.96875 Z M 165.070312 71.605469 C 164.832031 70.328125 163.664062 69.519531 162.214844 69.789062 C 160.742188 70.058594 159.9375 71.230469 160.175781 72.507812 C 160.402344 73.738281 161.574219 74.546875 163.042969 74.273438 C 164.492188 74.007812 165.296875 72.835938 165.070312 71.605469 Z M 165.070312 71.605469 " fill-opacity="1" fill-rule="nonzero"/></g></g></g><g clip-path="url(#9b520dcea8)"><g clip-path="url(#8871789675)"><g clip-path="url(#8ad77eb520)"><path fill="#1acf5a" d="M 124.683594 58.386719 C 134.910156 54.332031 146.488281 59.332031 150.542969 69.5625 C 154.160156 78.679688 150.570312 88.875 142.5 93.851562 L 137.972656 108.527344 L 135.664062 96.488281 C 126.484375 98.207031 117.082031 93.25 113.511719 84.246094 C 109.453125 74.019531 114.457031 62.441406 124.683594 58.386719 Z M 124.683594 58.386719 " fill-opacity="1" fill-rule="evenodd"/></g></g></g><g clip-path="url(#5736207791)"><g clip-path="url(#16cbd5d963)"><g clip-path="url(#bfd564cc15)"><path fill="#2d2d2d" d="M 124.179688 57.117188 C 129.644531 54.949219 135.46875 55.203125 140.46875 57.363281 C 145.46875 59.523438 149.648438 63.59375 151.8125 69.058594 C 153.730469 73.886719 153.75 79.003906 152.234375 83.582031 C 150.746094 88.078125 147.773438 92.054688 143.652344 94.734375 L 137.921875 112.441406 L 136.636719 108.789062 L 134.574219 98.039062 C 130.070312 98.582031 125.578125 97.652344 121.722656 95.523438 C 117.554688 93.21875 114.128906 89.511719 112.238281 84.75 C 110.074219 79.285156 110.324219 73.460938 112.488281 68.460938 C 114.648438 63.460938 118.71875 59.28125 124.179688 57.117188 Z M 139.386719 59.871094 C 135.027344 57.988281 129.949219 57.769531 125.1875 59.65625 C 120.425781 61.546875 116.878906 65.1875 114.996094 69.542969 C 113.113281 73.902344 112.890625 78.980469 114.78125 83.742188 C 116.429688 87.90625 119.410156 91.136719 123.039062 93.140625 C 126.730469 95.179688 131.097656 95.957031 135.414062 95.148438 L 136.746094 94.902344 L 138.28125 102.90625 L 141.199219 93.449219 L 141.785156 92.6875 C 145.574219 90.351562 148.304688 86.78125 149.644531 82.726562 C 150.964844 78.738281 150.945312 74.28125 149.273438 70.066406 C 147.386719 65.300781 143.746094 61.753906 139.386719 59.871094 Z M 139.386719 59.871094 " fill-opacity="1" fill-rule="nonzero"/></g></g></g><g clip-path="url(#efda779203)"><g clip-path="url(#56a11e245d)"><g clip-path="url(#f50ef72fd8)"><path fill="#c69107" d="M 123.253906 79.363281 L 129.757812 81.964844 L 138.453125 65.59375 L 142.289062 67.632812 L 131.757812 87.457031 L 121.628906 83.402344 Z M 123.253906 79.363281 " fill-opacity="1" fill-rule="nonzero"/></g></g></g></svg>